# xmcd CD database file
#
# Track frame offsets:
#	150
#	15984
#	32065
#	48081
#	64953
#	84250
#	109617
#	134639
#	148811
#	166806
#	182748
#
# Disc length: 2565 seconds
#
# Revision: 0
# Processed by: cddbd v1.5.1PL0 Copyright (c) Steve Scherf et al.
# Submitted via: CDex 1.51
#
DISCID=8c0a030b
DTITLE=Mario Canonge - Les plus belles chansons de Noël
DYEAR=2001
DGENRE=Jazz
TTITLE0=Souvenez-vous en
TTITLE1=Dans le calme de la nuit
TTITLE2=Joseph mon cher fidèle
TTITLE3=Douce nuit
TTITLE4=Les anges de nos campagnes
TTITLE5=Petit papa Noël
TTITLE6=Minuit chrétien
TTITLE7=L'heureux moment
TTITLE8=Les temps marqués
TTITLE9=Oh la bonne nouvelle
TTITLE10=Il est né le divin enfant
EXTD=YEAR: 2001
EXTT0=
EXTT1=
EXTT2=
EXTT3=
EXTT4=
EXTT5=
EXTT6=
EXTT7=
EXTT8=
EXTT9=
EXTT10=
PLAYORDER=
